<?xml version="1.0" encoding="utf-8"?><svg width="1552" height="44" viewBox="0 0 1552 44" xmlns="http://www.w3.org/2000/svg" xmlns:xlink="http://www.w3.org/1999/xlink"><svg viewBox="-2 -2 56 8" width="56" height="8" id="animated-overlay" xmlns="http://www.w3.org/2000/svg"><circle fill="#0572CE" cx="50" cy="2" r="2"/><circle fill="#0572CE" cx="38" cy="2" r="2"/><circle fill="#0572CE" cx="26" cy="2" r="2"/><circle fill="#0572CE" cx="14" cy="2" r="2"/><circle fill="#0572CE" cx="2" cy="2" r="2"/></svg><svg viewBox="-2 -2 24 24" width="24" height="24" id="cbsingle-dis-selected" x="56" xmlns="http://www.w3.org/2000/svg"><path fill="#B1B0B1" d="M0 0h20v20H0z"/><path fill="#FFF" d="M18 4.94L7.48 16 2 10.23l.89-.93 4.6 4.82 9.63-10.11.88.93z"/></svg><svg viewBox="-3 1 24 24" width="24" height="24" id="cbsingle-hover-selected" x="80" xmlns="http://www.w3.org/2000/svg"><path fill="#0582E8" d="M-1 3h20v20H-1z"/><path fill="#FFF" d="M17 7.94L6.48 19 1 13.23l.89-.93 4.6 4.82 9.63-10.11.88.93z"/></svg><svg opacity=".8" viewBox="-3 1 24 24" width="24" height="24" id="cbsingle-hover-unselected" x="104" xmlns="http://www.w3.org/2000/svg"><path fill="#FFF" d="M0 4h18v18H0z"/><path fill="#0582E8" d="M17 5v16H1V5h16m2-2H-1v20h20V3z"/></svg><svg id="checkbox-dis-selected" viewBox="-37 5 24 24" width="24" height="24" x="128" xmlns="http://www.w3.org/2000/svg"><style>.aest0{opacity:.5;fill:#0572ce}.aest1{fill:#fff}</style><path class="aest0" d="M-35 7h20v20h-20z" id="aeDisabled-Checkbox"/><path id="aeCheckmark" class="aest1" d="M-17 11.94L-27.52 23-33 17.23l.89-.93 4.6 4.82 9.63-10.11.88.93z"/></svg><svg viewBox="-2 -2 24 24" width="24" height="24" id="checkbox-dis-unselected" x="152" xmlns="http://www.w3.org/2000/svg"><path opacity=".8" fill="#FFF" d="M1 1h18v18H1z"/><path fill="#B0B0B0" d="M18 2v16H2V2h16m2-2H0v20h20V0z"/></svg><svg viewBox="-2 -2 24 24" width="24" height="24" id="checkbox-ena-selected" x="176" xmlns="http://www.w3.org/2000/svg"><path fill="#2B71B9" d="M0 0h20v20H0z"/><path fill="#FFF" d="M18 4.94L7.48 16 2 10.23l.89-.93 4.6 4.82 9.63-10.11.88.93z"/></svg><svg viewBox="-2 -2 24 24" width="24" height="24" id="checkbox-ena-unselected" x="200" xmlns="http://www.w3.org/2000/svg"><path fill="#FFF" d="M1 1h18v18H1z"/><path fill="#3C3C3C" d="M18 2v16H2V2h16m2-2H0v20h20V0z"/></svg><svg viewBox="-3 1 24 24" width="24" height="24" id="checkbox-pressed-selected" x="224" xmlns="http://www.w3.org/2000/svg"><path opacity=".15" fill="#044F91" d="M0 4h18v18H0z"/><path fill="#044F91" d="M17 5v16H1V5h16m2-2H-1v20h20V3z"/><path fill="#044F91" d="M17 7.94L6.48 19 1 13.23l.89-.93 4.6 4.82 9.63-10.11.88.93z"/></svg><svg viewBox="-3 1 24 24" width="24" height="24" id="checkbox-pressed-unselected" x="248" xmlns="http://www.w3.org/2000/svg"><path opacity=".15" fill="#044F91" d="M0 4h18v18H0z"/><path fill="#044F91" d="M17 5v16H1V5h16m2-2H-1v20h20V3z"/></svg><svg id="checkbox-tristate-partial" viewBox="-2 -2 24 24" width="24" height="24" x="272" xmlns="http://www.w3.org/2000/svg"><style>.akst0{display:none}.akst1{display:inline;fill:#fff}.akst2{fill:#2b71b9}.akst3{fill:#3c3c3c}</style><g id="akbackground" class="akst0"><path class="akst1" d="M1 1h18v18H1z"/></g><path class="akst2" d="M18 2v16H2V2h16m2-2H0v20h20V0z"/><path class="akst3" d="M5 5h10v10H5z"/></svg><svg viewBox="-2 -2 24 24" width="24" height="24" id="checkbox-tristate-selected" x="296" xmlns="http://www.w3.org/2000/svg"><path fill="#2B71B9" d="M0 0h20v20H0z"/><path fill="#FFF" d="M18 4.94L7.48 16 2 10.23l.89-.93 4.6 4.82 9.63-10.11.88.93z"/></svg><svg viewBox="-2 -2 24 24" width="24" height="24" id="checkbox-tristate-unselected" x="320" xmlns="http://www.w3.org/2000/svg"><path fill="#FFF" d="M1 1h18v18H1z"/><path fill="#3C3C3C" d="M18 2v16H2V2h16m2-2H0v20h20V0z"/></svg><svg width="20" height="20" viewBox="-2 -2 20 20" id="hier-folderclose-16-mono" x="344" xmlns="http://www.w3.org/2000/svg"><path fill="#6BAEDF" d="M.5 3.505V1.71c0-.112.008-.176.014-.21.006.002 5.8 0 5.8 0 .094 0 .15.004.185.01-.007.025 0 .09 0 .2v1.795h-6z"/><path fill="#4685B6" d="M6 2v1.005H1V2h5m.315-1H.703C.15 1 0 1.156 0 1.71v2.295h7V1.71C7 1.156 6.867 1 6.315 1z"/><path fill="#6BAEDF" d="M.703 14.5c-.11 0-.17-.01-.2-.016.005-.02-.003-.084-.003-.202V5.7c0-.11.007-.174.014-.208C.52 5.494 15.3 5.49 15.3 5.49c.104 0 .165.007.198.013-.006.022.002.085.002.196v8.582c0 .116-.008.18-.015.215l-.185.002H.703z"/><path fill="#4685B6" d="M15 5.99V14H1V5.99h14m.3-1H.703C.15 4.99 0 5.146 0 5.7v8.582c0 .553.15.717.704.717H15.3c.552 0 .7-.165.7-.718V5.7c0-.554-.148-.71-.7-.71z"/></svg><svg width="20" height="20" viewBox="-2 -2 20 20" id="hier-folderopen-16-mono" x="364" xmlns="http://www.w3.org/2000/svg"><path fill="#6BAEDF" d="M.5 4.5V1.71c0-.112.008-.176.014-.21.006.002 5.8 0 5.8 0 .094 0 .15.004.185.01-.007.025 0 .09 0 .2V3.5h7v1H.5z"/><path fill="#4685B6" d="M6 2v2h7H1V2h5m.315-1H.703C.15 1 0 1.156 0 1.71V5h14V3H7V1.71C7 1.156 6.867 1 6.315 1z"/><path fill="#6BAEDF" d="M.703 14.5c-.11 0-.17-.01-.2-.016.005-.02-.003-.084-.003-.202V6.708c0-.11.007-.173.014-.207.005.002 14.786 0 14.786 0 .104 0 .165.006.198.012-.006.022.002.085.002.196v7.575c0 .116-.008.18-.015.215l-.185.002H.703z"/><path fill="#4685B6" d="M15 7v7H1V7h14m.3-1H.703C.15 6 0 6.154 0 6.707v7.575c0 .553.15.717.704.717H15.3c.552 0 .7-.164.7-.717V6.708c0-.553-.148-.71-.7-.71z"/></svg><svg width="20" height="20" viewBox="-2 -2 20 20" id="hier-leaf-16-mono" x="384" xmlns="http://www.w3.org/2000/svg"><path fill="#BD5E28" d="M10 1l4 4h-4"/><path fill="#ED803D" d="M3.5 14.5v-13h5v5h5v8"/><path fill="#BD5E28" d="M8 2v5h5v7H4V2h4m1-1H3v14h11V6H9V1z"/></svg><svg viewBox="-2 -2 44 24" width="44" height="24" id="move-handle" x="404" xmlns="http://www.w3.org/2000/svg"><path fill="#BABABC" d="M0 8h40v3.97H0zm0 8.03h40V20H0zM0 0h40v3.97H0z"/></svg><svg width="44" height="44" viewBox="-2 -2 44 44" id="pull-to-refresh-00" x="448" xmlns="http://www.w3.org/2000/svg"/><svg width="44" height="44" viewBox="-2 -2 44 44" id="pull-to-refresh-10" x="492" xmlns="http://www.w3.org/2000/svg"/><svg width="44" height="44" viewBox="-2 -2 44 44" id="pull-to-refresh-20" x="536" xmlns="http://www.w3.org/2000/svg"><circle fill-rule="evenodd" clip-rule="evenodd" fill="#0572CE" cx="20.01" cy="3.01" r="3.01"/></svg><svg width="44" height="44" viewBox="-2 -2 44 44" id="pull-to-refresh-30" x="580" xmlns="http://www.w3.org/2000/svg"><path fill-rule="evenodd" clip-rule="evenodd" fill="#0572CE" d="M20.01 0C18.35 0 17 1.35 17 3.01c0 1.66 1.35 3.01 3.02 3.01s3.02-1.35 3.02-3.01A3.03 3.03 0 0 0 20.01 0zm12 5.05c-1.66 0-3 1.34-3 3s1.34 3 3 3 3-1.34 3-3c0-1.65-1.35-3-3-3z"/></svg><svg width="44" height="44" viewBox="-2 -2 44 44" id="pull-to-refresh-40" x="624" xmlns="http://www.w3.org/2000/svg"><path fill-rule="evenodd" clip-rule="evenodd" fill="#0572CE" d="M20.01 0C18.35 0 17 1.35 17 3.01c0 1.66 1.35 3.01 3.02 3.01s3.02-1.35 3.02-3.01A3.03 3.03 0 0 0 20.01 0zm17 17.01a2.99 2.99 0 0 0-2.99 2.98c0 1.65 1.34 2.98 2.99 2.98A2.99 2.99 0 0 0 40 19.99a2.99 2.99 0 0 0-2.99-2.98zm-2-8.96c0-1.66-1.35-3-3-3-1.66 0-3 1.34-3 3s1.34 3 3 3c1.65 0 3-1.34 3-3z"/></svg><svg width="44" height="44" viewBox="-2 -2 44 44" id="pull-to-refresh-50" x="668" xmlns="http://www.w3.org/2000/svg"><path fill-rule="evenodd" clip-rule="evenodd" fill="#0572CE" d="M20.01 0C18.35 0 17 1.35 17 3.01c0 1.66 1.35 3.01 3.02 3.01s3.02-1.35 3.02-3.01A3.03 3.03 0 0 0 20.01 0zm17 17.01a2.99 2.99 0 0 0-2.99 2.98c0 1.65 1.34 2.98 2.99 2.98A2.99 2.99 0 0 0 40 19.99a2.99 2.99 0 0 0-2.99-2.98zm-5-5.96c1.66 0 3-1.34 3-3s-1.35-3-3-3c-1.66 0-3 1.34-3 3a2.99 2.99 0 0 0 3 3zM32 28.99c-1.66 0-3.01 1.35-3.01 3.01s1.35 3.01 3.01 3.01 3.01-1.35 3.01-3.01-1.35-3.01-3.01-3.01z"/></svg><svg width="44" height="44" viewBox="-2 -2 44 44" id="pull-to-refresh-60" x="712" xmlns="http://www.w3.org/2000/svg"><path fill-rule="evenodd" clip-rule="evenodd" fill="#0572CE" d="M20.01 0C18.35 0 17 1.35 17 3.01c0 1.66 1.35 3.01 3.02 3.01s3.02-1.35 3.02-3.01A3.03 3.03 0 0 0 20.01 0zm17 17.01a2.99 2.99 0 0 0-2.99 2.98c0 1.65 1.34 2.98 2.99 2.98A2.99 2.99 0 0 0 40 19.99a2.99 2.99 0 0 0-2.99-2.98zM20.02 34.03c-1.65 0-2.99 1.34-2.99 2.98S18.37 40 20.02 40c1.65 0 2.99-1.34 2.99-2.98s-1.34-2.99-2.99-2.99zm11.99-22.98c1.66 0 3-1.34 3-3s-1.35-3-3-3c-1.66 0-3 1.34-3 3a2.99 2.99 0 0 0 3 3zM32 28.99c-1.66 0-3.01 1.35-3.01 3.01s1.35 3.01 3.01 3.01 3.01-1.35 3.01-3.01-1.35-3.01-3.01-3.01z"/></svg><svg width="44" height="44" viewBox="-2 -2 44 44" id="pull-to-refresh-70" x="756" xmlns="http://www.w3.org/2000/svg"><path fill-rule="evenodd" clip-rule="evenodd" fill="#0572CE" d="M20.01 0C18.35 0 17 1.35 17 3.01c0 1.66 1.35 3.01 3.02 3.01s3.02-1.35 3.02-3.01A3.03 3.03 0 0 0 20.01 0zm17 17.01a2.99 2.99 0 0 0-2.99 2.98c0 1.65 1.34 2.98 2.99 2.98A2.99 2.99 0 0 0 40 19.99a2.99 2.99 0 0 0-2.99-2.98zM20.02 34.03c-1.65 0-2.99 1.34-2.99 2.98S18.37 40 20.02 40c1.65 0 2.99-1.34 2.99-2.98s-1.34-2.99-2.99-2.99zm11.99-22.98c1.66 0 3-1.34 3-3s-1.35-3-3-3c-1.66 0-3 1.34-3 3a2.99 2.99 0 0 0 3 3zm-23.98 18c-1.67 0-3.02 1.35-3.02 3.01s1.35 3.01 3.02 3.01 3.02-1.35 3.02-3.01-1.35-3.01-3.02-3.01zM32 28.99c-1.66 0-3.01 1.35-3.01 3.01s1.35 3.01 3.01 3.01 3.01-1.35 3.01-3.01-1.35-3.01-3.01-3.01z"/></svg><svg width="44" height="44" viewBox="-2 -2 44 44" id="pull-to-refresh-80" x="800" xmlns="http://www.w3.org/2000/svg"><path fill-rule="evenodd" clip-rule="evenodd" fill="#0572CE" d="M20.01 0C18.35 0 17 1.35 17 3.01c0 1.66 1.35 3.01 3.02 3.01s3.02-1.35 3.02-3.01A3.03 3.03 0 0 0 20.01 0zm17 17.01a2.99 2.99 0 0 0-2.99 2.98c0 1.65 1.34 2.98 2.99 2.98A2.99 2.99 0 0 0 40 19.99a2.99 2.99 0 0 0-2.99-2.98zM5.99 20.02c0-1.65-1.34-2.99-3-2.99s-3 1.34-3 2.99c0 1.65 1.34 2.99 3 2.99s3-1.34 3-2.99zm14.03 14.01c-1.65 0-2.99 1.34-2.99 2.98S18.37 40 20.02 40c1.65 0 2.99-1.34 2.99-2.98s-1.34-2.99-2.99-2.99zm11.99-22.98c1.66 0 3-1.34 3-3s-1.35-3-3-3c-1.66 0-3 1.34-3 3a2.99 2.99 0 0 0 3 3zm-23.98 18c-1.67 0-3.02 1.35-3.02 3.01s1.35 3.01 3.02 3.01 3.02-1.35 3.02-3.01-1.35-3.01-3.02-3.01zM32 28.99c-1.66 0-3.01 1.35-3.01 3.01s1.35 3.01 3.01 3.01 3.01-1.35 3.01-3.01-1.35-3.01-3.01-3.01z"/></svg><svg width="44" height="44" viewBox="-2 -2 44 44" id="pull-to-refresh-90" x="844" xmlns="http://www.w3.org/2000/svg"><path fill-rule="evenodd" clip-rule="evenodd" fill="#0572CE" d="M20.01 0C18.35 0 17 1.35 17 3.01c0 1.66 1.35 3.01 3.02 3.01s3.02-1.35 3.02-3.01A3.03 3.03 0 0 0 20.01 0zm17 17.01a2.99 2.99 0 0 0-2.99 2.98c0 1.65 1.34 2.98 2.99 2.98A2.99 2.99 0 0 0 40 19.99a2.99 2.99 0 0 0-2.99-2.98zM5.99 20.02c0-1.65-1.34-2.99-3-2.99s-3 1.34-3 2.99c0 1.65 1.34 2.99 3 2.99s3-1.34 3-2.99zm14.03 14.01c-1.65 0-2.99 1.34-2.99 2.98S18.37 40 20.02 40c1.65 0 2.99-1.34 2.99-2.98s-1.34-2.99-2.99-2.99zm11.99-22.98c1.66 0 3-1.34 3-3s-1.35-3-3-3c-1.66 0-3 1.34-3 3a2.99 2.99 0 0 0 3 3zm-24.05-.06c1.65 0 2.99-1.34 2.99-2.99a2.994 2.994 0 1 0-5.99-.01c0 1.66 1.34 3 3 3zm.07 18.06c-1.67 0-3.02 1.35-3.02 3.01s1.35 3.01 3.02 3.01 3.02-1.35 3.02-3.01-1.35-3.01-3.02-3.01zM32 28.99c-1.66 0-3.01 1.35-3.01 3.01s1.35 3.01 3.01 3.01 3.01-1.35 3.01-3.01-1.35-3.01-3.01-3.01z"/></svg><svg opacity=".5" viewBox="-2 -2 24 24" width="24" height="24" id="radio-dis-selected" x="888" xmlns="http://www.w3.org/2000/svg"><style>.bbst0{fill:#fff}.bbst1{fill:#0572ce}.bbst2{fill:#2b71b9}</style><path class="bbst0" d="M10 0c5.5 0 10 4.5 10 10s-4.5 10-10 10S0 15.5 0 10 4.5 0 10 0z"/><path class="bbst1" d="M20 10c0 5.5-4.5 10-10 10S0 15.5 0 10 4.5 0 10 0s10 4.5 10 10zM10 2c-4.4 0-8 3.6-8 8s3.6 8 8 8 8-3.6 8-8-3.6-8-8-8z"/><circle id="bbinner-ellipse" class="bbst2" cx="10" cy="10.1" r="5"/></svg><svg opacity=".5" viewBox="-37 5 24 24" width="24" height="24" id="radio-dis-unselected" x="912" xmlns="http://www.w3.org/2000/svg"><style>.bcst0{fill:#fff}.bcst1{fill:#3c3c3c}</style><path class="bcst0" d="M-25 7c5.5 0 10 4.5 10 10s-4.5 10-10 10-10-4.5-10-10 4.5-10 10-10z"/><path class="bcst1" d="M-15 17c0 5.5-4.5 10-10 10s-10-4.5-10-10 4.5-10 10-10 10 4.5 10 10zm-10-8c-4.4 0-8 3.6-8 8s3.6 8 8 8 8-3.6 8-8-3.6-8-8-8z"/></svg><svg viewBox="-2 -2 24 24" width="24" height="24" id="radio-ena-selected" x="936" xmlns="http://www.w3.org/2000/svg"><path opacity=".8" fill="#FFF" d="M10 19c-4.96 0-9-4.04-9-9s4.04-9 9-9 9 4.04 9 9-4.04 9-9 9z"/><path fill="#0572CE" d="M10 2c4.41 0 8 3.59 8 8s-3.59 8-8 8-8-3.59-8-8 3.59-8 8-8m0-2C4.48 0 0 4.48 0 10s4.48 10 10 10 10-4.48 10-10S15.52 0 10 0z"/><circle fill="#0572CE" cx="9.96" cy="10.04" r="5"/></svg><svg viewBox="-2 -2 24 24" width="24" height="24" id="radio-ena-unselected" x="960" xmlns="http://www.w3.org/2000/svg"><g opacity=".8"><path fill="#FFF" d="M10 19c-4.96 0-9-4.04-9-9s4.04-9 9-9 9 4.04 9 9-4.04 9-9 9z"/><path d="M10 2c4.41 0 8 3.59 8 8s-3.59 8-8 8-8-3.59-8-8 3.59-8 8-8m0-2C4.48 0 0 4.48 0 10s4.48 10 10 10 10-4.48 10-10S15.52 0 10 0z"/></g></svg><svg viewBox="-2 -2 24 24" width="24" height="24" id="radio-pressed-selected" x="984" xmlns="http://www.w3.org/2000/svg"><path fill="#044F91" d="M10 20C4.49 20 0 15.51 0 10S4.49 0 10 0s10 4.49 10 10-4.49 10-10 10z" opacity=".15"/><path fill="#044F91" d="M10 2c4.41 0 8 3.59 8 8s-3.59 8-8 8-8-3.59-8-8 3.59-8 8-8m0-2C4.48 0 0 4.48 0 10s4.48 10 10 10 10-4.48 10-10S15.52 0 10 0z"/><circle fill="#044F91" cx="9.96" cy="10.04" r="5"/></svg><svg viewBox="-2 -2 24 24" width="24" height="24" id="radio-pressed-unselected" x="1008" xmlns="http://www.w3.org/2000/svg"><path fill="#044F91" d="M10 20C4.49 20 0 15.51 0 10S4.49 0 10 0s10 4.49 10 10-4.49 10-10 10z" opacity=".15"/><path fill="#044F91" d="M10 2c4.41 0 8 3.59 8 8s-3.59 8-8 8-8-3.59-8-8 3.59-8 8-8m0-2C4.48 0 0 4.48 0 10s4.48 10 10 10 10-4.48 10-10S15.52 0 10 0z"/></svg><svg viewBox="-2 -2 44 44" width="44" height="44" id="spinner-00" x="1032" xmlns="http://www.w3.org/2000/svg"/><svg viewBox="-2 -2 44 44" width="44" height="44" id="spinner-10" x="1076" xmlns="http://www.w3.org/2000/svg"/><svg viewBox="-2 -2 44 44" width="44" height="44" id="spinner-20" x="1120" xmlns="http://www.w3.org/2000/svg"><circle fill-rule="evenodd" clip-rule="evenodd" fill="#0572CE" cx="20.01" cy="3.01" r="3.01"/></svg><svg viewBox="-2 -2 44 44" width="44" height="44" id="spinner-30" x="1164" xmlns="http://www.w3.org/2000/svg"><path fill-rule="evenodd" clip-rule="evenodd" fill="#0572CE" d="M20.01 0C18.35 0 17 1.35 17 3.01c0 1.66 1.35 3.01 3.02 3.01s3.02-1.35 3.02-3.01A3.03 3.03 0 0 0 20.01 0zm12 5.05c-1.66 0-3 1.34-3 3s1.34 3 3 3 3-1.34 3-3c0-1.65-1.35-3-3-3z"/></svg><svg viewBox="-2 -2 44 44" width="44" height="44" id="spinner-40" x="1208" xmlns="http://www.w3.org/2000/svg"><path fill-rule="evenodd" clip-rule="evenodd" fill="#0572CE" d="M20.01 0C18.35 0 17 1.35 17 3.01c0 1.66 1.35 3.01 3.02 3.01s3.02-1.35 3.02-3.01A3.03 3.03 0 0 0 20.01 0zm17 17.01a2.99 2.99 0 0 0-2.99 2.98c0 1.65 1.34 2.98 2.99 2.98A2.99 2.99 0 0 0 40 19.99a2.99 2.99 0 0 0-2.99-2.98zm-2-8.96c0-1.66-1.35-3-3-3-1.66 0-3 1.34-3 3s1.34 3 3 3c1.65 0 3-1.34 3-3z"/></svg><svg viewBox="-2 -2 44 44" width="44" height="44" id="spinner-50" x="1252" xmlns="http://www.w3.org/2000/svg"><path fill-rule="evenodd" clip-rule="evenodd" fill="#0572CE" d="M20.01 0C18.35 0 17 1.35 17 3.01c0 1.66 1.35 3.01 3.02 3.01s3.02-1.35 3.02-3.01A3.03 3.03 0 0 0 20.01 0zm17 17.01a2.99 2.99 0 0 0-2.99 2.98c0 1.65 1.34 2.98 2.99 2.98A2.99 2.99 0 0 0 40 19.99a2.99 2.99 0 0 0-2.99-2.98zm-5-5.96c1.66 0 3-1.34 3-3s-1.35-3-3-3c-1.66 0-3 1.34-3 3a2.99 2.99 0 0 0 3 3zM32 28.99c-1.66 0-3.01 1.35-3.01 3.01s1.35 3.01 3.01 3.01 3.01-1.35 3.01-3.01-1.35-3.01-3.01-3.01z"/></svg><svg viewBox="-2 -2 44 44" width="44" height="44" id="spinner-60" x="1296" xmlns="http://www.w3.org/2000/svg"><path fill-rule="evenodd" clip-rule="evenodd" fill="#0572CE" d="M20.01 0C18.35 0 17 1.35 17 3.01c0 1.66 1.35 3.01 3.02 3.01s3.02-1.35 3.02-3.01A3.03 3.03 0 0 0 20.01 0zm17 17.01a2.99 2.99 0 0 0-2.99 2.98c0 1.65 1.34 2.98 2.99 2.98A2.99 2.99 0 0 0 40 19.99a2.99 2.99 0 0 0-2.99-2.98zM20.02 34.03c-1.65 0-2.99 1.34-2.99 2.98S18.37 40 20.02 40c1.65 0 2.99-1.34 2.99-2.98s-1.34-2.99-2.99-2.99zm11.99-22.98c1.66 0 3-1.34 3-3s-1.35-3-3-3c-1.66 0-3 1.34-3 3a2.99 2.99 0 0 0 3 3zM32 28.99c-1.66 0-3.01 1.35-3.01 3.01s1.35 3.01 3.01 3.01 3.01-1.35 3.01-3.01-1.35-3.01-3.01-3.01z"/></svg><svg viewBox="-2 -2 44 44" width="44" height="44" id="spinner-70" x="1340" xmlns="http://www.w3.org/2000/svg"><path fill-rule="evenodd" clip-rule="evenodd" fill="#0572CE" d="M20.01 0C18.35 0 17 1.35 17 3.01c0 1.66 1.35 3.01 3.02 3.01s3.02-1.35 3.02-3.01A3.03 3.03 0 0 0 20.01 0zm17 17.01a2.99 2.99 0 0 0-2.99 2.98c0 1.65 1.34 2.98 2.99 2.98A2.99 2.99 0 0 0 40 19.99a2.99 2.99 0 0 0-2.99-2.98zM20.02 34.03c-1.65 0-2.99 1.34-2.99 2.98S18.37 40 20.02 40c1.65 0 2.99-1.34 2.99-2.98s-1.34-2.99-2.99-2.99zm11.99-22.98c1.66 0 3-1.34 3-3s-1.35-3-3-3c-1.66 0-3 1.34-3 3a2.99 2.99 0 0 0 3 3zm-23.98 18c-1.67 0-3.02 1.35-3.02 3.01s1.35 3.01 3.02 3.01 3.02-1.35 3.02-3.01-1.35-3.01-3.02-3.01zM32 28.99c-1.66 0-3.01 1.35-3.01 3.01s1.35 3.01 3.01 3.01 3.01-1.35 3.01-3.01-1.35-3.01-3.01-3.01z"/></svg><svg viewBox="-2 -2 44 44" width="44" height="44" id="spinner-80" x="1384" xmlns="http://www.w3.org/2000/svg"><path fill-rule="evenodd" clip-rule="evenodd" fill="#0572CE" d="M20.01 0C18.35 0 17 1.35 17 3.01c0 1.66 1.35 3.01 3.02 3.01s3.02-1.35 3.02-3.01A3.03 3.03 0 0 0 20.01 0zm17 17.01a2.99 2.99 0 0 0-2.99 2.98c0 1.65 1.34 2.98 2.99 2.98A2.99 2.99 0 0 0 40 19.99a2.99 2.99 0 0 0-2.99-2.98zM5.99 20.02c0-1.65-1.34-2.99-3-2.99s-3 1.34-3 2.99c0 1.65 1.34 2.99 3 2.99s3-1.34 3-2.99zm14.03 14.01c-1.65 0-2.99 1.34-2.99 2.98S18.37 40 20.02 40c1.65 0 2.99-1.34 2.99-2.98s-1.34-2.99-2.99-2.99zm11.99-22.98c1.66 0 3-1.34 3-3s-1.35-3-3-3c-1.66 0-3 1.34-3 3a2.99 2.99 0 0 0 3 3zm-23.98 18c-1.67 0-3.02 1.35-3.02 3.01s1.35 3.01 3.02 3.01 3.02-1.35 3.02-3.01-1.35-3.01-3.02-3.01zM32 28.99c-1.66 0-3.01 1.35-3.01 3.01s1.35 3.01 3.01 3.01 3.01-1.35 3.01-3.01-1.35-3.01-3.01-3.01z"/></svg><svg viewBox="-2 -2 44 44" width="44" height="44" id="spinner-90" x="1428" xmlns="http://www.w3.org/2000/svg"><path fill-rule="evenodd" clip-rule="evenodd" fill="#0572CE" d="M20.01 0C18.35 0 17 1.35 17 3.01c0 1.66 1.35 3.01 3.02 3.01s3.02-1.35 3.02-3.01A3.03 3.03 0 0 0 20.01 0zm17 17.01a2.99 2.99 0 0 0-2.99 2.98c0 1.65 1.34 2.98 2.99 2.98A2.99 2.99 0 0 0 40 19.99a2.99 2.99 0 0 0-2.99-2.98zM5.99 20.02c0-1.65-1.34-2.99-3-2.99s-3 1.34-3 2.99c0 1.65 1.34 2.99 3 2.99s3-1.34 3-2.99zm14.03 14.01c-1.65 0-2.99 1.34-2.99 2.98S18.37 40 20.02 40c1.65 0 2.99-1.34 2.99-2.98s-1.34-2.99-2.99-2.99zm11.99-22.98c1.66 0 3-1.34 3-3s-1.35-3-3-3c-1.66 0-3 1.34-3 3a2.99 2.99 0 0 0 3 3zm-24.05-.06c1.65 0 2.99-1.34 2.99-2.99a2.994 2.994 0 1 0-5.99-.01c0 1.66 1.34 3 3 3zm.07 18.06c-1.67 0-3.02 1.35-3.02 3.01s1.35 3.01 3.02 3.01 3.02-1.35 3.02-3.01-1.35-3.01-3.02-3.01zM32 28.99c-1.66 0-3.01 1.35-3.01 3.01s1.35 3.01 3.01 3.01 3.01-1.35 3.01-3.01-1.35-3.01-3.01-3.01z"/></svg><svg width="20" height="20" viewBox="-2 -2 20 20" id="stat-confirm-16" x="1472" xmlns="http://www.w3.org/2000/svg"><path fill="#76B417" d="M8 15.5C3.864 15.5.5 12.136.5 8S3.864.5 8 .5s7.5 3.364 7.5 7.5-3.364 7.5-7.5 7.5z"/><path fill="#5B9207" d="M8 1c3.86 0 7 3.14 7 7s-3.14 7-7 7-7-3.14-7-7 3.14-7 7-7m0-1a8 8 0 1 0 0 16A8 8 0 0 0 8 0z"/><path fill="none" stroke="#FFF" stroke-width="2" stroke-linecap="round" stroke-linejoin="round" stroke-miterlimit="10" d="M4.364 8.05l2.614 2.45 5.973-5.782"/></svg><svg width="20" height="20" viewBox="-2 -2 20 20" id="stat-error-16" x="1492" xmlns="http://www.w3.org/2000/svg"><path fill="#E4001E" d="M8 15.5C3.864 15.5.5 12.136.5 8S3.864.5 8 .5s7.5 3.364 7.5 7.5-3.364 7.5-7.5 7.5z"/><path fill="#AC0017" d="M8 1c3.86 0 7 3.14 7 7s-3.14 7-7 7-7-3.14-7-7 3.14-7 7-7m0-1a8 8 0 1 0 0 16A8 8 0 0 0 8 0z"/><path fill="none" stroke="#FFF" stroke-width="2" stroke-linecap="round" stroke-linejoin="round" stroke-miterlimit="10" d="M5 11l6-6m0 6L5 5"/></svg><svg width="20" height="20" viewBox="-2 -2 20 20" id="stat-info-16" x="1512" xmlns="http://www.w3.org/2000/svg"><path fill="#0087D0" d="M8 15.5C3.864 15.5.5 12.136.5 8S3.864.5 8 .5s7.5 3.364 7.5 7.5-3.364 7.5-7.5 7.5z"/><path fill="#0075B4" d="M8 1c3.86 0 7 3.14 7 7s-3.14 7-7 7-7-3.14-7-7 3.14-7 7-7m0-1a8 8 0 1 0 0 16A8 8 0 0 0 8 0z"/><path fill="#FFF" d="M5.922 11.996L10.1 12v-.76s-1.2-.072-1.2-1.2c0-1.12.025-4.04.025-4.04h-2.95v.847s1.15-.1 1.15.8v2.645l-1.2.9-.003.804z"/><circle fill-rule="evenodd" clip-rule="evenodd" fill="#F5F8FC" cx="8" cy="4" r="1"/></svg><svg width="20" height="20" viewBox="-2 -2 20 20" id="stat-warn-16" x="1532" xmlns="http://www.w3.org/2000/svg"><path fill="#F8C015" stroke="#B9922E" stroke-miterlimit="10" d="M8.703.768c-.356-.443-1.17-.263-1.385 0-.396.486-6.47 12.667-6.72 13.51-.225.76 0 1.22 1.3 1.22h12.225c1.3 0 1.468-.517 1.3-1.22-.117-.49-6.28-12.958-6.72-13.51z"/><circle fill-rule="evenodd" clip-rule="evenodd" fill="#F6F9FD" cx="8" cy="13.001" r="1.125"/><path fill-rule="evenodd" clip-rule="evenodd" fill="#F6F9FD" d="M9 5.75a1 1 0 1 0-2 0v4.5a1 1 0 0 0 2 0v-4.5z"/></svg></svg>